PathFileType	4	(X/Y/Z)	D:\TRACE\spot_10-12-23\spot_arm_motion_1_2-v60.trc
DataRate	CameraRate	NumFrames	NumMarkers	Units	OrigDataRate	OrigDataStartFrame	OrigNumFrames
100.00	100.00	      17	9	mm	100.00	5251	      7000
Frame#	Time	front left toe			Front right toe			aft left toe			aft right toe			Arm			FL body			FR body			AL Body			AR Body			
		X1	Y1	Z1	X2	Y2	Z2	X3	Y3	Z3	X4	Y4	Z4	X5	Y5	Z5	X6	Y6	Z6	X7	Y7	Z7	X8	Y8	Z8	X9	Y9	Z9	

5251	52.500	-309.05423	21.87818	-26.44470	203.33586	32.23267	-116.11771	-201.76254	-3.02812	559.25403	308.22525	3.89613	464.93253	47.46396	873.05255	-707.25159	-180.42328	556.29407	-122.91209	-30.79767	561.29340	-151.46889	-24.38299	527.63739	746.46661	123.71255	525.84607	722.03918	
5252	52.510	-308.20474	21.95977	-26.42594	204.66219	32.91574	-116.08241	-200.80676	-3.00735	559.19238	309.07120	3.79322	465.12756	46.00736	871.95526	-707.75720	-179.02312	556.89484	-122.92229	-29.25556	561.77020	-151.07436	-24.26606	528.09729	747.07458	125.35907	525.80963	722.34351	
5253	52.520	-307.25058	21.90024	-26.52728	205.54100	32.77290	-116.18008	-199.69421	-2.84132	559.13379	309.95688	3.70163	465.19278	44.22750	870.40356	-708.73767	-177.53368	557.17145	-122.64352	-27.92529	562.13177	-150.85408	-22.32951	528.31836	747.25629	126.07320	525.83997	722.23822	
5254	52.530	-306.59528	22.11308	-26.49461	206.35712	32.92347	-116.24026	-198.64462	-2.86139	559.25165	311.15009	3.62732	465.15329	42.79423	868.37970	-709.37842	-176.75293	557.30060	-122.39852	-27.13525	562.20184	-150.82910	-20.39855	527.91400	746.70972	127.87784	525.84521	722.10162	
5255	52.540	-305.58527	21.92041	-26.19092	207.31549	32.99708	-116.54293	-197.55049	-2.87353	559.22351	312.59616	3.36158	464.87820	40.30095	866.06818	-710.33398	-175.99844	557.45740	-122.21123	-25.82749	562.05841	-150.90456	-18.66076	527.82208	746.68970	129.93935	525.82495	722.06396	
5256	52.550	-304.71713	21.62404	-25.96480	208.14091	32.89515	-116.59293	-196.25912	-2.75771	559.44238	313.28714	3.18811	465.05200	38.56385	863.71930	-711.15497	-175.29037	557.23474	-121.87757	-25.62130	561.96777	-150.71593	-16.62938	528.08441	746.49695	132.22023	525.99213	721.96423	
5257	52.560	-304.00473	21.67765	-25.84551	209.11336	33.11048	-116.58575	-195.26167	-2.61291	559.43848	314.66876	2.99757	464.88202	37.23420	861.08392	-711.86560	-174.65741	556.82196	-121.47382	-25.10493	561.55615	-150.16443	-14.98223	528.42352	746.84198	134.05263	526.01556	721.57471	
5258	52.570	-303.22998	21.51319	-25.81728	209.53793	33.06306	-116.65778	-194.18329	-2.64796	559.61261	315.43198	2.80694	464.74200	36.52935	858.70929	-712.37262	-174.36887	556.42249	-121.14284	-24.64808	560.96692	-150.18178	-12.63301	528.87756	747.72931	136.31776	526.43658	721.62994	
5259	52.580	-302.45132	21.39977	-25.51282	210.19789	32.92997	-116.79668	-192.96039	-2.54548	559.50446	316.37051	2.60180	464.56821	36.01701	856.44232	-713.10083	-174.16780	555.97577	-121.05136	-24.37510	560.65527	-150.70049	-9.94488	528.99158	747.20050	138.39833	526.55524	720.76233	
5260	52.590	-301.61810	21.10771	-25.16076	211.33937	33.05335	-116.68655	-192.09958	-2.36775	559.48102	317.48868	2.50882	464.34979	35.79714	854.24414	-713.54468	-173.76875	555.40973	-120.78908	-24.03190	559.99078	-150.73392	-7.85944	529.08514	746.74719	140.63918	527.01062	720.74170	
5261	52.600	-300.80652	20.85757	-25.05646	212.60379	33.64306	-116.39903	-191.09198	-2.56511	559.66248	318.41898	2.35927	464.24960	36.84042	852.30640	-714.02917	-173.42647	554.64856	-120.43771	-23.73487	559.12378	-150.27611	-5.41620	529.63367	746.97650	142.21846	527.22601	719.98199	
5262	52.610	-300.16083	20.89923	-24.91216	212.59981	33.58034	-116.79772	-189.90251	-2.60947	559.64069	319.34283	2.17835	464.15720	37.11812	850.79279	-713.91431	-173.06339	554.19971	-120.08614	-23.55908	558.59924	-150.32164	-3.81785	530.09039	747.42163	144.17755	527.53943	719.77551	
5263	52.620	-299.14215	20.67444	-24.82190	213.37228	33.54344	-117.03336	-189.17065	-2.49263	559.70111	320.18222	2.12245	464.00452	38.72664	849.15320	-714.05072	-172.50969	553.77295	-119.97316	-23.41248	558.46686	-150.90437	-1.67811	529.96362	747.18677	145.78575	527.52820	719.53662	
5264	52.630	-298.22244	20.75430	-24.58890	214.70126	33.57232	-116.93092	-188.20782	-2.52921	559.81677	321.21341	2.00503	464.13501	40.12906	848.10938	-714.32941	-172.05530	553.64795	-120.02517	-22.61349	557.79688	-150.47549	-1.44837	530.86914	747.65472	147.14107	527.74207	719.47949	
5265	52.640	-297.43130	21.00091	-24.55118	215.27875	33.43878	-116.94949	-187.26498	-2.72112	559.70831	322.07169	2.04508	464.09531	42.67519	847.08746	-713.96570	-171.21811	553.37463	-119.95834	-21.74687	557.61774	-150.46104	0.45311	530.19232	746.23242	148.52679	527.85132	719.30267	
5266	52.650	-296.25986	20.92889	-24.69380	216.17236	33.36909	-116.85970	-186.74313	-2.76221	559.62457	322.86838	1.97144	464.03397	44.53530	846.51678	-712.78778	-170.32112	553.15021	-119.88217	-20.89427	557.51434	-150.43941	1.22924	530.21014	746.36615	149.30099	527.90356	719.19165	
5267	52.660	-295.63364	21.14143	-24.90055	217.24873	33.51119	-116.49743	-185.74411	-2.93529	559.73047	323.89886	1.96985	463.96747	47.24785	845.95380	-712.58246	-168.78276	552.85474	-119.95986	-19.61406	557.29102	-150.42252	2.30212	530.37701	746.43701	150.13571	527.89655	719.24719	
